<svg width="696" height="468" viewBox="0 0 696 468" fill="none" xmlns="http://www.w3.org/2000/svg">
<path d="M556.46 53.21H199.24C172.736 53.21 151.25 74.6958 151.25 101.2V313.43C151.25 339.934 172.736 361.42 199.24 361.42H556.46C582.964 361.42 604.45 339.934 604.45 313.43V101.2C604.45 74.6958 582.964 53.21 556.46 53.21Z" fill="black"/>
<path d="M434.33 5H563.92" stroke="black" stroke-miterlimit="10" stroke-dasharray="2 2"/>
<path d="M121 186.24V71.53C121.021 53.8899 128.039 36.9785 140.513 24.506C152.987 12.0335 169.9 5.01853 187.54 5H396.31" stroke="black" stroke-miterlimit="10" stroke-dasharray="2 2"/>
<path d="M634.699 71.53V307.17C634.678 324.808 627.662 341.718 615.19 354.19C602.717 366.663 585.807 373.679 568.169 373.7H187.539" stroke="black" stroke-miterlimit="10" stroke-dasharray="2 2"/>
<path d="M556.46 35.24H199.24C172.736 35.24 151.25 56.7258 151.25 83.23V295.46C151.25 321.964 172.736 343.45 199.24 343.45H556.46C582.964 343.45 604.45 321.964 604.45 295.46V83.23C604.45 56.7258 582.964 35.24 556.46 35.24Z" fill="#006CFA" stroke="black" stroke-miterlimit="10"/>
<path d="M151.25 96.42H604.45V295.42C604.45 308.15 599.393 320.359 590.391 329.361C581.389 338.363 569.18 343.42 556.45 343.42H199.25C186.52 343.42 174.311 338.363 165.309 329.361C156.307 320.359 151.25 308.15 151.25 295.42V96.42Z" fill="white" stroke="black" stroke-miterlimit="10"/>
<path d="M642.669 229.85L624.529 229.68L615.029 211.54L632.899 211.2L642.669 229.85Z" fill="black" stroke="black" stroke-linejoin="round"/>
<path d="M642.71 229.83L652.89 214.82L643.38 196.68L632.93 211.18L642.71 229.83Z" fill="white" stroke="black" stroke-linejoin="round"/>
<path d="M625.579 197.24L615.029 211.54L632.929 211.18L643.379 196.68L625.579 197.24Z" fill="white" stroke="black" stroke-linejoin="round"/>
<path d="M274.619 390.25H368.559" stroke="black" stroke-miterlimit="10" stroke-dasharray="2 2"/>
<path d="M138.4 123.72L154.47 131.16L170.54 138.6L156.06 148.8L141.58 159L139.99 141.36L138.4 123.72Z" fill="white" stroke="black" stroke-miterlimit="10"/>
<path d="M149.85 139.97L141.58 159L170.54 138.6L149.85 139.97Z" fill="black"/>
<path d="M149.85 139.98L138.4 123.72" stroke="black" stroke-miterlimit="10"/>
<path d="M151.25 96.42H604.46" stroke="black" stroke-miterlimit="10"/>
<path d="M296.489 132.1H182.919C180.727 132.1 178.949 133.877 178.949 136.07V137.24C178.949 139.433 180.727 141.21 182.919 141.21H296.489C298.682 141.21 300.459 139.433 300.459 137.24V136.07C300.459 133.877 298.682 132.1 296.489 132.1Z" fill="#B1FF05" stroke="black" stroke-width="1.07" stroke-miterlimit="10"/>
<path d="M568.989 132.1H455.419C453.227 132.1 451.449 133.877 451.449 136.07V137.24C451.449 139.433 453.227 141.21 455.419 141.21H568.989C571.182 141.21 572.959 139.433 572.959 137.24V136.07C572.959 133.877 571.182 132.1 568.989 132.1Z" fill="#B1FF05" stroke="black" stroke-width="1.07" stroke-miterlimit="10"/>
<path d="M568.989 253.85H182.919C180.727 253.85 178.949 255.627 178.949 257.82V258.99C178.949 261.183 180.727 262.96 182.919 262.96H568.989C571.182 262.96 572.959 261.183 572.959 258.99V257.82C572.959 255.627 571.182 253.85 568.989 253.85Z" fill="#B1FF05" stroke="black" stroke-width="1.07" stroke-miterlimit="10"/>
<path d="M568.989 294.43H375.749C373.557 294.43 371.779 296.207 371.779 298.4V299.57C371.779 301.763 373.557 303.54 375.749 303.54H568.989C571.182 303.54 572.959 301.763 572.959 299.57V298.4C572.959 296.207 571.182 294.43 568.989 294.43Z" fill="#B1FF05" stroke="black" stroke-width="1.07" stroke-miterlimit="10"/>
<path d="M262.159 213.27H182.919C180.727 213.27 178.949 215.047 178.949 217.24V218.41C178.949 220.603 180.727 222.38 182.919 222.38H262.159C264.352 222.38 266.129 220.603 266.129 218.41V217.24C266.129 215.047 264.352 213.27 262.159 213.27Z" fill="#B1FF05" stroke="black" stroke-width="1.07" stroke-miterlimit="10"/>
<path d="M569 213.27H500.57C498.377 213.27 496.6 215.047 496.6 217.24V218.41C496.6 220.603 498.377 222.38 500.57 222.38H569C571.192 222.38 572.97 220.603 572.97 218.41V217.24C572.97 215.047 571.192 213.27 569 213.27Z" fill="#B1FF05" stroke="black" stroke-width="1.07" stroke-miterlimit="10"/>
<path d="M438.759 181.8L568.989 181.8C571.182 181.8 572.959 180.023 572.959 177.83V176.66C572.959 174.467 571.182 172.69 568.989 172.69L438.759 172.69C436.566 172.69 434.789 174.467 434.789 176.66V177.83C434.789 180.023 436.566 181.8 438.759 181.8Z" fill="#B1FF05" stroke="black" stroke-width="1.07" stroke-miterlimit="10"/>
<path d="M182.929 181.8L301.989 181.8C304.182 181.8 305.959 180.023 305.959 177.83V176.66C305.959 174.467 304.182 172.69 301.989 172.69H182.929C180.736 172.69 178.959 174.467 178.959 176.66V177.83C178.959 180.023 180.736 181.8 182.929 181.8Z" fill="#B1FF05" stroke="black" stroke-width="1.07" stroke-miterlimit="10"/>
<path d="M189.24 75.86C194.078 75.86 198 71.938 198 67.1C198 62.2619 194.078 58.34 189.24 58.34C184.402 58.34 180.48 62.2619 180.48 67.1C180.48 71.938 184.402 75.86 189.24 75.86Z" fill="white" stroke="black" stroke-width="0.8" stroke-miterlimit="10"/>
<path d="M213.539 75.86C218.377 75.86 222.299 71.938 222.299 67.1C222.299 62.2619 218.377 58.34 213.539 58.34C208.701 58.34 204.779 62.2619 204.779 67.1C204.779 71.938 208.701 75.86 213.539 75.86Z" fill="white" stroke="black" stroke-width="0.8" stroke-miterlimit="10"/>
<path d="M237.83 75.86C242.668 75.86 246.59 71.938 246.59 67.1C246.59 62.2619 242.668 58.34 237.83 58.34C232.992 58.34 229.07 62.2619 229.07 67.1C229.07 71.938 232.992 75.86 237.83 75.86Z" fill="white" stroke="black" stroke-width="0.8" stroke-miterlimit="10"/>
<path d="M338.18 265.21L338.05 209.32L434.33 153.42C419.161 144.763 401.925 140.388 384.463 140.762C367.001 141.136 349.969 146.246 335.184 155.545C320.4 164.844 308.418 177.983 300.518 193.56C292.618 209.138 289.097 226.568 290.33 243.99L160.24 314V323.33C160.24 332.955 164.064 342.185 170.869 348.991C177.675 355.797 186.906 359.62 196.53 359.62H265L332.89 317.24C347.406 326.942 364.284 332.521 381.723 333.381C399.162 334.24 416.506 330.349 431.906 322.121C447.306 313.894 460.183 301.639 469.162 286.665C478.141 271.691 482.886 254.56 482.89 237.1L386.65 293L338.18 265.21Z" fill="black" stroke="black" stroke-miterlimit="10"/>
<path d="M482.929 237.14L473.939 220.94L461.609 260.17L482.929 237.14Z" fill="black" stroke="black" stroke-miterlimit="10"/>
<path d="M434.33 153.42L425.33 137.22H396.33C396.33 137.22 401.45 157 401.76 157C402.07 157 420.08 161.73 420.08 161.73L434.33 153.42Z" fill="black" stroke="black" stroke-miterlimit="10"/>
<path d="M377.671 165.05L426.001 193.12L425.861 249L377.391 276.83L329.061 248.77L329.191 192.88L377.671 165.05Z" fill="white" stroke="black" stroke-width="1.07" stroke-miterlimit="10"/>
<path d="M377.391 276.83L377.531 220.94L329.191 192.88L329.061 248.77L377.391 276.83Z" fill="black"/>
<path d="M425.999 193.11L377.529 220.94" stroke="black" stroke-width="1.07" stroke-miterlimit="10"/>
<path d="M329.19 249L329.06 193.1L425.34 137.21C410.172 128.55 392.937 124.172 375.474 124.544C358.012 124.917 340.979 130.025 326.193 139.323C311.408 148.622 299.425 161.761 291.526 177.339C283.626 192.917 280.105 210.347 281.34 227.77L151.24 297.83V307.16C151.24 311.925 152.179 316.644 154.003 321.046C155.827 325.448 158.5 329.448 161.87 332.817C165.24 336.186 169.241 338.859 173.643 340.681C178.046 342.504 182.765 343.441 187.53 343.44H256L323.89 301.06C338.406 310.762 355.284 316.341 372.723 317.201C390.162 318.06 407.506 314.169 422.906 305.941C438.306 297.714 451.183 285.459 460.162 270.485C469.141 255.511 473.886 238.38 473.89 220.92L377.62 276.82L329.19 249Z" fill="#00D2FF" stroke="black" stroke-miterlimit="10"/>
<path d="M257.709 268.72L157.199 327.07C160.5 332.104 165.002 336.236 170.298 339.096C175.595 341.955 181.52 343.452 187.539 343.45H205.289L276.999 301.85C281.279 299.243 284.368 295.062 285.601 290.204C286.835 285.347 286.117 280.199 283.6 275.865C281.083 271.531 276.968 268.356 272.137 267.02C267.307 265.684 262.145 266.295 257.759 268.72H257.709Z" fill="white" stroke="black" stroke-miterlimit="10"/>
<path d="M264.919 286.68L172.609 340.27" stroke="black" stroke-width="1.07" stroke-miterlimit="10"/>
<path d="M549.141 303.6L524.851 327.89L510.811 305.82L527.071 289.56L549.141 303.6Z" fill="black" stroke="black" stroke-miterlimit="10"/>
<path d="M596.41 399.45L620.7 375.16L634.74 397.23L618.48 413.49L596.41 399.45Z" fill="black" stroke="black" stroke-miterlimit="10"/>
<path d="M620.7 327.89L596.41 303.6L618.48 289.56L634.74 305.82L620.7 327.89Z" fill="black" stroke="black" stroke-miterlimit="10"/>
<path d="M524.851 375.16L549.141 399.45L527.071 413.49L510.811 397.23L524.851 375.16Z" fill="black" stroke="black" stroke-miterlimit="10"/>
<path d="M584.27 275.39L575.42 266.54C575.42 266.54 572 271.37 569.35 275.39H561.28L555.6 300.93H590L584.27 275.39Z" fill="black" stroke="black" stroke-miterlimit="10"/>
<path d="M558.83 416.67L552.43 418.81L561.28 427.66H584.27L589.95 402.12H555.6L558.83 416.67Z" fill="black" stroke="black" stroke-miterlimit="10"/>
<path d="M496.639 349.51L487.789 354.17L496.639 363.02L522.169 368.7V334.35L496.639 340.03V349.51Z" fill="black" stroke="black" stroke-miterlimit="10"/>
<path d="M640.06 331.18C640.06 331.18 639.54 334.51 639.06 337.84L623.34 334.35V368.7L648.91 363V340L640.06 331.18Z" fill="black" stroke="black" stroke-miterlimit="10"/>
<path d="M531.93 310.68C523.586 319.025 517.903 329.657 515.601 341.232C513.299 352.807 514.481 364.804 518.998 375.707C523.514 386.61 531.162 395.929 540.975 402.485C550.787 409.042 562.324 412.541 574.125 412.541C585.926 412.541 597.463 409.042 607.275 402.485C617.088 395.929 624.736 386.61 629.252 375.707C633.769 364.804 634.951 352.807 632.649 341.232C630.347 329.657 624.665 319.025 616.32 310.68C610.78 305.137 604.202 300.741 596.962 297.741C589.722 294.741 581.962 293.197 574.125 293.197C566.288 293.197 558.528 294.741 551.288 297.741C544.048 300.741 537.47 305.137 531.93 310.68ZM603.52 382.27C597.705 388.086 590.296 392.046 582.231 393.651C574.165 395.255 565.804 394.432 558.206 391.285C550.608 388.138 544.114 382.809 539.545 375.971C534.976 369.133 532.537 361.094 532.537 352.87C532.537 344.646 534.976 336.607 539.545 329.769C544.114 322.931 550.608 317.602 558.206 314.455C565.804 311.308 574.165 310.485 582.231 312.089C590.296 313.694 597.705 317.655 603.52 323.47C607.382 327.33 610.445 331.914 612.535 336.958C614.625 342.003 615.701 347.41 615.701 352.87C615.701 358.33 614.625 363.737 612.535 368.782C610.445 373.826 607.382 378.41 603.52 382.27Z" fill="black" stroke="black" stroke-miterlimit="10"/>
<path d="M540.289 294.75L515.999 319.04L501.959 296.97L518.219 280.71L540.289 294.75Z" fill="#006CFA" stroke="black" stroke-miterlimit="10"/>
<path d="M587.561 390.6L611.851 366.31L625.891 388.38L609.631 404.64L587.561 390.6Z" fill="#006CFA" stroke="black" stroke-miterlimit="10"/>
<path d="M611.851 319.04L587.561 294.75L609.631 280.71L625.891 296.97L611.851 319.04Z" fill="#006CFA" stroke="black" stroke-miterlimit="10"/>
<path d="M515.999 366.31L540.289 390.6L518.219 404.64L501.959 388.38L515.999 366.31Z" fill="#006CFA" stroke="black" stroke-miterlimit="10"/>
<path d="M581.1 292.07H546.75L552.43 266.54H575.42L581.1 292.07Z" fill="#006CFA" stroke="black" stroke-miterlimit="10"/>
<path d="M546.75 393.27H581.1L575.42 418.81H552.43L546.75 393.27Z" fill="#006CFA" stroke="black" stroke-miterlimit="10"/>
<path d="M614.52 359.85V325.5L640.06 331.18V354.17L614.52 359.85Z" fill="#006CFA" stroke="black" stroke-miterlimit="10"/>
<path d="M513.319 325.5V359.85L487.789 354.17V331.18L513.319 325.5Z" fill="#006CFA" stroke="black" stroke-miterlimit="10"/>
<path d="M521.729 300.48C513.384 308.825 507.702 319.457 505.4 331.032C503.098 342.607 504.28 354.604 508.797 365.507C513.313 376.41 520.961 385.729 530.774 392.285C540.586 398.842 552.123 402.341 563.924 402.341C575.725 402.341 587.262 398.842 597.074 392.285C606.887 385.729 614.535 376.41 619.051 365.507C623.568 354.604 624.75 342.607 622.448 331.032C620.146 319.457 614.463 308.825 606.119 300.48C600.579 294.937 594.001 290.541 586.761 287.541C579.521 284.541 571.761 282.997 563.924 282.997C556.087 282.997 548.327 284.541 541.087 287.541C533.847 290.541 527.269 294.937 521.729 300.48ZM593.319 372.07C587.504 377.885 580.095 381.846 572.029 383.451C563.963 385.055 555.603 384.232 548.005 381.085C540.407 377.938 533.913 372.609 529.344 365.771C524.775 358.933 522.336 350.894 522.336 342.67C522.336 334.446 524.775 326.407 529.344 319.569C533.913 312.731 540.407 307.402 548.005 304.255C555.603 301.108 563.963 300.285 572.029 301.889C580.095 303.494 587.504 307.454 593.319 313.27C597.181 317.13 600.244 321.714 602.334 326.758C604.424 331.803 605.5 337.21 605.5 342.67C605.5 348.13 604.424 353.537 602.334 358.582C600.244 363.626 597.181 368.21 593.319 372.07Z" fill="#006CFA" stroke="black" stroke-miterlimit="10"/>
<path d="M610.667 362.044C621.361 336.225 609.101 306.626 583.283 295.932C557.464 285.237 527.865 297.498 517.17 323.316C506.476 349.135 518.737 378.734 544.555 389.428C570.373 400.123 599.973 387.862 610.667 362.044Z" stroke="black" stroke-miterlimit="10" stroke-dasharray="2 2"/>
<path d="M152.84 185.12L167.32 174.92L151.25 167.48V186.24L152.84 185.12Z" fill="black"/>
<path d="M138.76 446.13L145.11 456.72C151.88 468.02 179.92 463.66 207.74 446.99C235.56 430.32 252.62 407.64 245.85 396.35L239.5 385.76L138.76 446.13Z" fill="black" stroke="black" stroke-miterlimit="10"/>
<path d="M118.41 412.18L142.08 451.67C148.85 462.96 176.89 458.6 204.71 441.93C232.53 425.26 249.59 402.59 242.82 391.29L219.15 351.8C212.38 340.51 184.35 344.87 156.53 361.54C128.71 378.21 111.65 400.88 118.41 412.18Z" fill="#00ED64"/>
<path d="M219.15 351.8L242.82 391.29C249.59 402.59 232.52 425.29 204.71 441.93C176.9 458.57 148.85 462.93 142.08 451.67L118.41 412.18" stroke="black" stroke-miterlimit="10"/>
<path d="M231.24 372C238.01 383.3 220.95 406 193.13 422.64C165.31 439.28 137.28 443.64 130.51 432.37" stroke="black" stroke-miterlimit="10"/>
<path d="M202.08 345.56L240.28 409.29C244.41 402.21 245.54 395.83 242.82 391.29L219.15 351.8C216.43 347.27 210.28 345.26 202.08 345.56Z" fill="black" stroke="black" stroke-miterlimit="10"/>
<path d="M179.763 404.036C207.653 387.497 224.819 364.91 218.104 353.586C211.389 342.263 183.336 346.492 155.446 363.031C127.557 379.571 110.391 402.158 117.106 413.481C123.821 424.804 151.873 420.575 179.763 404.036Z" fill="white" stroke="black" stroke-width="0.99985" stroke-miterlimit="10"/>
<path d="M156.001 381.78L160.381 389.09C161.631 391.18 166.821 390.38 171.971 387.29C177.121 384.2 180.281 380.01 178.971 377.92L174.591 370.61C173.341 368.52 168.151 369.33 163.001 372.41C157.851 375.49 154.741 379.69 156.001 381.78Z" fill="#B1FF05" stroke="black" stroke-miterlimit="10"/>
<path d="M167.801 370.19L174.571 385.51C178.111 382.74 180.041 379.63 179.011 377.92L174.631 370.61C173.781 369.18 171.071 369.11 167.801 370.19Z" fill="black" stroke="black" stroke-miterlimit="10"/>
<path d="M184.32 293.69C177.55 282.4 149.52 286.76 121.7 303.43C93.8798 320.1 76.8198 342.77 83.5898 354.06" stroke="black" stroke-miterlimit="10"/>
<path d="M81.4994 350.59L105.169 390.08C111.939 401.37 139.979 397.01 167.789 380.34C195.599 363.67 212.679 341 205.909 329.7L182.239 290.22C175.469 278.92 147.429 283.28 119.619 299.95C91.8094 316.62 74.7394 339.29 81.4994 350.59Z" fill="#00ED64"/>
<path d="M165.17 284L203.37 347.73C207.5 340.65 208.63 334.27 205.91 329.73L182.24 290.25C179.52 285.68 173.37 283.67 165.17 284Z" fill="black" stroke="black" stroke-miterlimit="10"/>
<path d="M144.103 340.878C171.922 324.209 188.987 301.541 182.22 290.246C175.452 278.952 147.415 283.309 119.596 299.978C91.7779 316.647 74.7127 339.315 81.4801 350.609C88.2475 361.904 116.285 357.547 144.103 340.878Z" fill="white" stroke="black" stroke-miterlimit="10"/>
<path d="M182.24 290.21L205.91 329.7C212.68 341 195.61 363.7 167.79 380.34C139.97 396.98 111.94 401.34 105.17 390.08L81.5 350.59" stroke="black" stroke-miterlimit="10"/>
<path d="M119.08 320.2L123.46 327.5C124.71 329.59 129.9 328.79 135.05 325.7C140.2 322.61 143.36 318.42 142.05 316.33L137.72 309C136.47 306.91 131.28 307.72 126.13 310.8C120.98 313.88 117.83 318.1 119.08 320.2Z" fill="#B1FF05" stroke="black" stroke-miterlimit="10"/>
<path d="M130.891 308.6L137.661 323.92C141.201 321.15 143.131 318.04 142.101 316.33L137.721 309C136.871 307.59 134.161 307.52 130.891 308.6Z" fill="black" stroke="black" stroke-miterlimit="10"/>
<path d="M44.5893 289L68.2593 328.49C75.0293 339.78 103.069 335.42 130.879 318.75C158.689 302.08 175.769 279.41 168.999 268.12L145.329 228.63C138.559 217.33 110.519 221.69 82.7093 238.36C54.8993 255.03 37.8293 277.7 44.5893 289Z" fill="#00ED64"/>
<path d="M145.329 228.63C138.559 217.33 110.519 221.69 82.7093 238.36C54.8993 255.03 37.8293 277.7 44.5893 289" stroke="black" stroke-miterlimit="10"/>
<path d="M145.33 228.63L169 268.12C175.77 279.41 158.7 302.12 130.88 318.75C103.06 335.38 75.0298 339.75 68.2598 328.49L44.5898 289" stroke="black" stroke-miterlimit="10"/>
<path d="M157.16 248.37C163.93 259.67 146.87 282.37 119.05 299.01C91.2297 315.65 63.1997 320.01 56.4297 308.74" stroke="black" stroke-miterlimit="10"/>
<path d="M194.07 310C200.84 321.29 183.78 344 155.96 360.64C128.14 377.28 100.11 381.64 93.3398 370.37" stroke="black" stroke-miterlimit="10"/>
<path d="M128.26 222.38L166.46 286.11C170.59 279.03 171.72 272.65 169 268.11L145.33 228.62C142.61 224.09 136.45 222.08 128.26 222.38Z" fill="black" stroke="black" stroke-miterlimit="10"/>
<path d="M106.277 280.279C134.167 263.74 151.333 241.153 144.618 229.83C137.903 218.507 109.85 222.735 81.9601 239.275C54.0702 255.814 36.9044 278.401 43.6193 289.724C50.3342 301.047 78.387 296.819 106.277 280.279Z" fill="white" stroke="black" stroke-width="0.99985" stroke-miterlimit="10"/>
<path d="M137.6 184.82L121.01 201.41L104.42 184.82" stroke="black" stroke-miterlimit="10" stroke-dasharray="2 2"/>
<path d="M617.199 67.1L633.789 50.51L650.389 67.1" stroke="black" stroke-miterlimit="10" stroke-dasharray="2 2"/>
</svg>
