<svg width="668" height="440" viewBox="0 0 668 440" fill="none" xmlns="http://www.w3.org/2000/svg">
<g clip-path="url(#clip0)">
<path d="M466.854 57.2309L455.777 45.9082L461.07 28.9241L472.392 39.7545L466.854 57.2309Z" fill="#001E2B" stroke="#001E2B" stroke-miterlimit="10" stroke-linejoin="round"/>
<path d="M466.854 57.2309L482.485 54.2771L487.777 37.1699L472.393 39.7545L466.854 57.2309Z" fill="white" stroke="#001E2B" stroke-miterlimit="10" stroke-linejoin="round"/>
<path d="M476.454 26.5857L461.069 28.9241L472.392 39.7545L487.776 37.17L476.454 26.5857Z" fill="white" stroke="#001E2B" stroke-miterlimit="10" stroke-linejoin="round"/>
<path d="M154.039 40.2463H225.47" stroke="#001E2B" stroke-miterlimit="10" stroke-dasharray="2 2"/>
<path d="M110 22.3647H181.431" stroke="#001E2B" stroke-miterlimit="10" stroke-dasharray="2 2"/>
<path d="M533 80.2933V314.09C533 318.57 529.389 322.192 524.922 322.192H172.077C167.611 322.192 164 318.57 164 314.09V80.2933C164 75.8137 167.611 72.1919 172.077 72.1919H524.922C529.389 72.1919 533 75.8137 533 80.2933Z" fill="white" stroke="#001E2B" stroke-miterlimit="10"/>
<path d="M533.001 80.116V100H164.001V80.116C164.013 77.9594 164.869 75.8952 166.382 74.3745C167.895 72.8537 169.942 72 172.076 72.0001H524.935C525.992 71.9953 527.04 72.2018 528.019 72.6075C528.997 73.0132 529.887 73.6103 530.636 74.3644C531.386 75.1185 531.981 76.0148 532.386 77.0019C532.792 77.9889 533.001 79.0471 533.001 80.116Z" fill="#FFC010" stroke="#001E2B" stroke-miterlimit="10"/>
<path d="M533.202 99.9653H163.587" stroke="#001E2B" stroke-miterlimit="10"/>
<path d="M488.744 72.6939L483.097 90.6389L471.803 79.0938L474.062 72.1919H488.116L488.744 72.6939Z" fill="#001E2B" stroke="#001E2B" stroke-miterlimit="10" stroke-linejoin="round"/>
<path d="M503.804 72.1919L499.035 87.6271L483.223 90.6389L488.745 72.6939L492.384 72.1919H503.804Z" fill="#001E2B" stroke="#001E2B" stroke-miterlimit="10" stroke-linejoin="round"/>
<path d="M492.383 72.1919L488.744 72.6939L488.117 72.1919H492.383Z" fill="#001E2B" stroke="#001E2B" stroke-miterlimit="10" stroke-linejoin="round"/>
<path d="M266.977 124.6V174.44C266.977 176.247 265.455 177.769 263.648 177.769H163.683V173.394H149.13V124.6C149.13 122.793 150.652 121.271 152.459 121.271H263.648C265.551 121.271 266.977 122.698 266.977 124.6Z" fill="#001E2B"/>
<path d="M266.977 124.6V174.44C266.977 176.247 265.455 177.769 263.648 177.769H163.683V173.394H149.13V124.6C149.13 122.793 150.652 121.271 152.459 121.271H263.648C265.551 121.271 266.977 122.698 266.977 124.6Z" stroke="#001E2B" stroke-width="0.4351" stroke-miterlimit="10"/>
<path d="M262.698 120.225V170.065C262.698 171.872 261.176 173.394 259.369 173.394H148.085C146.277 173.394 144.756 171.872 144.756 170.065V120.225C144.756 118.418 146.277 116.896 148.085 116.896H259.369C261.176 116.896 262.698 118.418 262.698 120.225Z" fill="white"/>
<path d="M262.698 120.225V170.065C262.698 171.872 261.176 173.394 259.369 173.394H148.085C146.277 173.394 144.756 171.872 144.756 170.065V120.225C144.756 118.418 146.277 116.896 148.085 116.896H259.369C261.176 116.896 262.698 118.418 262.698 120.225Z" stroke="#001E2B" stroke-width="0.4351" stroke-miterlimit="10"/>
<path d="M196.592 144.194C196.402 143.908 196.307 143.623 196.212 143.338C196.117 142.957 196.117 142.672 196.117 142.291V138.487C196.117 137.155 195.831 136.204 195.166 135.633C194.5 134.967 193.453 134.682 192.122 134.682C191.456 134.682 190.885 134.777 190.315 134.872C189.839 134.967 189.268 135.158 188.793 135.443C188.698 135.538 188.603 135.538 188.508 135.728C188.412 135.823 188.412 136.014 188.412 136.109V136.68C188.412 136.965 188.507 137.06 188.698 137.06C188.793 137.06 188.793 137.06 188.888 137.06C189.078 137.06 189.173 136.965 189.268 136.87C189.649 136.68 190.124 136.584 190.505 136.489C190.885 136.394 191.361 136.299 191.741 136.299C192.597 136.299 193.263 136.489 193.644 136.87C194.024 137.25 194.214 137.821 194.214 138.772V139.628C193.739 139.533 193.263 139.438 192.883 139.343C192.502 139.248 192.027 139.248 191.646 139.248C190.41 139.248 189.459 139.533 188.793 140.199C188.127 140.769 187.747 141.625 187.747 142.577C187.747 143.433 188.032 144.194 188.603 144.859C189.268 145.43 190.124 145.715 190.98 145.715C192.312 145.715 193.549 145.145 194.405 144.098C194.5 144.384 194.69 144.574 194.785 144.764C194.88 144.954 195.07 145.145 195.166 145.335C195.261 145.43 195.356 145.525 195.546 145.525C195.641 145.525 195.736 145.525 195.831 145.43L196.592 144.954C196.687 144.859 196.782 144.764 196.782 144.574C196.687 144.384 196.687 144.289 196.592 144.194ZM194.214 141.34C194.214 141.721 194.214 142.006 194.119 142.386C194.024 142.672 193.929 142.957 193.739 143.147C193.453 143.528 193.073 143.718 192.597 143.908C192.217 144.003 191.837 144.098 191.361 144.098C190.885 144.098 190.505 144.003 190.124 143.718C189.839 143.433 189.649 142.957 189.649 142.482C189.649 142.006 189.839 141.435 190.22 141.15C190.6 140.865 191.171 140.674 191.932 140.674C192.312 140.674 192.693 140.674 192.978 140.769C193.358 140.769 193.739 140.865 194.024 140.96V141.34H194.214ZM211.05 134.967H210.003C209.813 134.967 209.718 134.967 209.528 135.063C209.433 135.158 209.338 135.348 209.338 135.538L207.34 143.338L205.533 135.538C205.533 135.348 205.438 135.253 205.343 135.063C205.248 134.967 205.057 134.967 204.867 134.967H203.916C203.726 134.967 203.631 134.967 203.44 135.063C203.345 135.158 203.25 135.348 203.25 135.538L201.443 143.242L199.446 135.538C199.446 135.348 199.351 135.253 199.255 135.063C199.16 134.967 198.97 134.967 198.78 134.967H197.543C197.448 134.967 197.353 135.063 197.353 135.253C197.353 135.443 197.448 135.538 197.448 135.728L200.207 144.764C200.207 144.954 200.302 145.05 200.492 145.24C200.587 145.335 200.777 145.335 200.968 145.335H202.014C202.204 145.335 202.394 145.335 202.489 145.24C202.584 145.145 202.68 144.954 202.68 144.764L204.487 137.25L206.294 144.764C206.294 144.954 206.389 145.05 206.484 145.24C206.579 145.335 206.769 145.335 206.96 145.335H208.006C208.196 145.335 208.291 145.335 208.482 145.24C208.577 145.145 208.672 144.954 208.767 144.764L211.525 135.728C211.525 135.633 211.62 135.538 211.62 135.443C211.62 135.348 211.62 135.348 211.62 135.253V135.158C211.335 135.063 211.145 134.967 211.05 134.967ZM219.325 140.769C218.944 140.294 218.373 139.913 217.517 139.628L215.9 139.153C215.425 139.057 214.949 138.772 214.569 138.487C214.379 138.296 214.188 137.916 214.188 137.631C214.188 137.25 214.379 136.775 214.759 136.584C215.235 136.299 215.805 136.204 216.281 136.299C217.042 136.299 217.803 136.394 218.564 136.775C218.659 136.87 218.849 136.87 219.039 136.87C219.23 136.87 219.325 136.775 219.325 136.489V135.919C219.325 135.823 219.325 135.633 219.23 135.538C219.134 135.443 219.039 135.348 218.849 135.253C218.659 135.158 218.564 135.063 218.373 135.063C218.183 134.967 217.993 134.967 217.708 134.872C217.517 134.872 217.232 134.777 216.947 134.777C216.661 134.777 216.376 134.682 216.186 134.682C215.71 134.682 215.235 134.777 214.759 134.872C214.284 134.967 213.903 135.253 213.523 135.443C213.142 135.728 212.857 136.014 212.667 136.394C212.476 136.775 212.381 137.25 212.381 137.726C212.381 138.296 212.571 138.962 212.952 139.438C213.428 140.009 214.093 140.484 214.854 140.579L216.566 141.15C217.042 141.245 217.422 141.435 217.708 141.721C217.898 141.911 217.993 142.196 217.993 142.577C217.993 143.052 217.803 143.433 217.422 143.718C216.852 144.003 216.281 144.098 215.71 144.098C215.235 144.098 214.759 144.003 214.284 144.003C213.808 143.908 213.428 143.813 212.952 143.623C212.857 143.528 212.762 143.528 212.667 143.528C212.571 143.528 212.571 143.528 212.476 143.528C212.286 143.528 212.191 143.623 212.191 143.908V144.479C212.191 144.574 212.191 144.669 212.286 144.764C212.381 144.954 212.476 145.05 212.667 145.05C213.047 145.24 213.523 145.43 213.998 145.525C214.569 145.62 215.235 145.715 215.805 145.715C216.376 145.715 216.947 145.62 217.517 145.43C217.993 145.335 218.469 145.05 218.849 144.764C219.23 144.479 219.515 144.098 219.705 143.718C219.895 143.338 219.99 142.862 219.99 142.386C219.895 141.816 219.705 141.245 219.325 140.769Z" fill="#252F3E"/>
<path fill-rule="evenodd" clip-rule="evenodd" d="M217.994 151.327C214.189 154.18 208.577 155.702 203.822 155.702C197.449 155.702 191.267 153.42 186.511 149.044C186.13 148.759 186.511 148.283 186.891 148.569C192.218 151.612 198.21 153.134 204.297 153.134C208.863 153.134 213.333 152.183 217.518 150.471C217.994 150.186 218.564 150.851 217.994 151.327Z" fill="#FF9900"/>
<path fill-rule="evenodd" clip-rule="evenodd" d="M219.515 149.52C219.039 148.854 216.281 149.235 215.045 149.33C214.664 149.425 214.569 149.044 214.949 148.759C217.137 147.237 220.751 147.618 221.132 148.188C221.512 148.664 221.037 152.278 218.944 154.085C218.659 154.371 218.374 154.18 218.469 153.895C219.039 152.754 220.086 150.091 219.515 149.52Z" fill="#FF9900"/>
<path d="M404.323 177.769H293.039C291.232 177.769 289.71 176.247 289.71 174.44V124.6C289.71 122.793 291.232 121.271 293.039 121.271H404.228C406.035 121.271 407.557 122.793 407.557 124.6V174.44C407.652 176.247 406.13 177.769 404.323 177.769Z" fill="#001E2B"/>
<path d="M404.323 177.769H293.039C291.232 177.769 289.71 176.247 289.71 174.44V124.6C289.71 122.793 291.232 121.271 293.039 121.271H404.228C406.035 121.271 407.557 122.793 407.557 124.6V174.44C407.652 176.247 406.13 177.769 404.323 177.769Z" stroke="#001E2B" stroke-width="0.4351" stroke-miterlimit="10"/>
<path d="M399.947 173.394H288.758C286.951 173.394 285.429 171.872 285.429 170.065V120.225C285.429 118.418 286.951 116.896 288.758 116.896H399.947C401.754 116.896 403.276 118.418 403.276 120.225V170.065C403.276 171.967 401.849 173.394 399.947 173.394Z" fill="white"/>
<path d="M399.947 173.394H288.758C286.951 173.394 285.429 171.872 285.429 170.065V120.225C285.429 118.418 286.951 116.896 288.758 116.896H399.947C401.754 116.896 403.276 118.418 403.276 120.225V170.065C403.276 171.967 401.849 173.394 399.947 173.394Z" stroke="#001E2B" stroke-width="0.4351" stroke-miterlimit="10"/>
<path d="M356.86 149.235C354.102 149.33 351.724 147.047 351.724 144.289C351.724 144.194 351.724 144.099 351.724 144.004C351.724 142.577 352.2 141.245 353.151 140.294C354.102 139.343 355.434 138.772 356.86 138.772C358.287 138.772 359.619 139.343 360.475 140.389L359.619 141.245C358.953 140.389 357.907 139.914 356.86 139.914C355.814 139.914 354.863 140.294 354.102 141.055C353.341 141.816 352.961 142.862 352.961 143.908C352.961 144.955 353.341 146.001 354.102 146.762C354.863 147.523 355.814 147.903 356.86 147.903C358.002 147.903 359.143 147.333 359.904 146.477L360.855 147.428C360.38 147.998 359.809 148.474 359.143 148.759C358.382 149.045 357.621 149.235 356.86 149.235ZM363.138 138.962V148.949H361.901V138.962H363.138ZM364.184 145.525C364.184 144.574 364.469 143.623 365.135 142.957C365.801 142.291 366.752 141.911 367.608 141.911C368.559 141.911 369.415 142.291 370.081 142.957C370.747 143.623 371.127 144.574 371.127 145.525C371.127 146.477 370.842 147.428 370.081 148.093C369.415 148.759 368.559 149.14 367.608 149.14C366.657 149.14 365.706 148.759 365.135 148.093C364.565 147.428 364.184 146.572 364.184 145.525ZM365.516 145.525C365.516 146.191 365.706 146.857 366.182 147.333C367.038 148.189 368.369 148.284 369.225 147.428L369.32 147.333C369.796 146.857 369.986 146.191 369.986 145.525C369.986 144.86 369.796 144.194 369.32 143.718C368.559 142.862 367.133 142.767 366.277 143.623L366.182 143.718C365.706 144.289 365.421 144.955 365.516 145.525ZM378.261 148.949H377.025V147.998H376.929C376.739 148.379 376.359 148.664 376.073 148.854C375.693 149.045 375.217 149.14 374.837 149.235C374.076 149.235 373.41 149.045 372.935 148.474C372.459 147.903 372.174 147.142 372.269 146.477V142.196H373.505V146.381C373.41 147.237 373.981 147.998 374.837 148.093C374.932 148.093 375.122 148.093 375.217 148.093C375.693 148.093 376.169 147.903 376.454 147.523C376.834 147.142 377.025 146.572 376.929 146.001V142.196H378.166L378.261 148.949ZM382.636 149.235C381.78 149.235 380.924 148.854 380.354 148.189C379.688 147.523 379.402 146.572 379.402 145.62C379.402 144.669 379.688 143.718 380.354 143.052C380.924 142.387 381.78 142.006 382.636 142.006C383.112 142.006 383.587 142.101 383.968 142.291C384.348 142.482 384.729 142.767 384.919 143.147H385.014V142.196V139.058H386.251V149.045H385.014V148.093H384.919C384.729 148.474 384.348 148.759 383.968 148.949C383.587 149.14 383.112 149.235 382.636 149.235ZM382.827 147.998C383.397 147.998 383.968 147.808 384.348 147.333C384.729 146.857 385.014 146.191 384.919 145.525C384.919 144.86 384.729 144.289 384.348 143.718C383.968 143.243 383.397 143.052 382.827 143.052C382.256 143.052 381.685 143.338 381.305 143.718C380.924 144.194 380.639 144.86 380.734 145.525C380.734 146.191 380.924 146.762 381.305 147.333C381.685 147.808 382.256 147.998 382.827 147.998Z" fill="#5F6368"/>
<path d="M308.257 149.235C305.118 149.235 302.55 146.762 302.55 143.623C302.645 140.484 305.118 138.011 308.257 138.011C309.684 138.011 311.111 138.582 312.157 139.533L311.015 140.579C310.255 139.818 309.303 139.438 308.257 139.438C305.974 139.438 304.167 141.245 304.167 143.433C304.167 143.433 304.167 143.433 304.167 143.528C304.167 145.811 305.974 147.618 308.162 147.618C308.162 147.618 308.162 147.618 308.257 147.618C309.303 147.618 310.35 147.237 311.111 146.476C311.586 145.906 311.872 145.24 311.967 144.574H308.257V143.052H313.488C313.584 143.338 313.584 143.718 313.584 144.003C313.584 145.335 313.108 146.667 312.252 147.618C311.111 148.664 309.684 149.235 308.257 149.235Z" fill="#4285F4"/>
<path d="M321.574 145.525C321.669 147.523 320.147 149.14 318.15 149.235C316.153 149.33 314.536 147.808 314.441 145.811C314.441 145.715 314.441 145.62 314.441 145.525C314.345 143.528 315.867 141.911 317.865 141.816C319.862 141.721 321.479 143.242 321.574 145.24C321.574 145.335 321.574 145.43 321.574 145.525ZM319.957 145.525C320.052 144.384 319.291 143.433 318.15 143.338C317.009 143.242 316.057 144.003 315.962 145.145C315.962 145.24 315.962 145.43 315.962 145.525C315.867 146.667 316.628 147.618 317.77 147.713C318.911 147.808 319.862 147.047 319.957 145.906C320.052 145.811 320.052 145.715 319.957 145.525Z" fill="#EA4335"/>
<path d="M329.659 145.525C329.754 147.523 328.232 149.14 326.235 149.235C324.237 149.33 322.62 147.808 322.525 145.811C322.525 145.715 322.525 145.62 322.525 145.525C322.43 143.528 323.952 141.911 325.949 141.816C327.947 141.721 329.564 143.242 329.659 145.24C329.659 145.335 329.659 145.43 329.659 145.525ZM328.042 145.525C328.137 144.384 327.281 143.433 326.14 143.338C324.998 143.242 324.047 144.098 323.952 145.24C323.952 145.335 323.952 145.43 323.952 145.525C323.857 146.667 324.713 147.618 325.854 147.713C326.996 147.808 327.947 146.952 328.042 145.811C328.042 145.811 328.042 145.62 328.042 145.525Z" fill="#FBBC04"/>
<path d="M337.458 142.196V148.664C337.458 151.327 335.841 152.469 334.034 152.469C332.608 152.469 331.371 151.613 330.8 150.281L332.227 149.71C332.512 150.471 333.273 150.947 334.034 151.042C335.271 151.042 335.937 150.281 335.937 148.949V148.379C335.461 148.949 334.7 149.235 334.034 149.235C332.037 149.235 330.42 147.618 330.42 145.62C330.42 143.623 332.037 142.006 334.034 142.006C334.795 142.006 335.461 142.291 335.937 142.862H336.032V142.291H337.458V142.196ZM336.032 145.62C336.127 144.479 335.271 143.528 334.129 143.433C334.129 143.433 334.129 143.433 334.034 143.433C332.893 143.433 331.942 144.479 332.037 145.62C331.942 146.762 332.893 147.713 334.034 147.808C335.271 147.713 336.127 146.762 336.032 145.62Z" fill="#4285F4"/>
<path d="M340.311 138.297V148.949H338.694V138.297H340.311Z" fill="#34A853"/>
<path d="M346.589 146.762L347.825 147.618C347.159 148.664 346.018 149.235 344.782 149.235C342.879 149.235 341.262 147.713 341.167 145.811C341.167 145.716 341.167 145.716 341.167 145.62C340.977 143.813 342.404 142.196 344.211 142.006C345.733 141.911 347.159 142.862 347.635 144.289L347.825 144.669L342.974 146.667C343.26 147.332 344.021 147.808 344.782 147.808C345.542 147.808 346.208 147.428 346.589 146.762ZM342.784 145.43L346.018 144.099C345.733 143.623 345.257 143.338 344.686 143.338C343.545 143.433 342.689 144.384 342.784 145.43Z" fill="#EA4335"/>
<path d="M543.856 121.271V170.16C543.856 171.967 542.334 173.489 540.527 173.489H532.918V177.864H433.714C431.906 177.864 430.385 176.342 430.385 174.535V124.6C430.385 122.793 431.906 121.271 433.714 121.271H543.856Z" fill="#001E2B"/>
<path d="M543.856 121.271V170.16C543.856 171.967 542.334 173.489 540.527 173.489H532.918V177.864H433.714C431.906 177.864 430.385 176.342 430.385 174.535V124.6C430.385 122.793 431.906 121.271 433.714 121.271H543.856Z" stroke="#001E2B" stroke-width="0.4351" stroke-miterlimit="10"/>
<path d="M543.856 120.225V170.065C543.856 171.872 542.334 173.394 540.527 173.394H429.338C427.531 173.394 426.009 171.872 426.009 170.065V120.225C426.009 118.418 427.531 116.896 429.338 116.896H540.527C542.429 116.896 543.856 118.418 543.856 120.225Z" fill="white"/>
<path d="M543.856 120.225V170.065C543.856 171.872 542.334 173.394 540.527 173.394H429.338C427.531 173.394 426.009 171.872 426.009 170.065V120.225C426.009 118.418 427.531 116.896 429.338 116.896H540.527C542.429 116.896 543.856 118.418 543.856 120.225Z" stroke="#001E2B" stroke-width="0.4351" stroke-miterlimit="10"/>
<path d="M481.274 134.677C480.798 134.677 480.418 134.963 480.227 135.438L473.855 154.271C473.855 154.366 473.76 154.461 473.76 154.652C473.76 155.222 474.235 155.698 474.806 155.698H479.942C480.418 155.698 480.798 155.412 480.988 154.937L487.361 136.104C487.361 136.009 487.456 135.914 487.456 135.724C487.456 135.153 486.98 134.677 486.41 134.677H481.274Z" fill="url(#paint0_linear)"/>
<path d="M486.6 148.279L480.322 148.374C480.132 148.374 479.942 148.564 479.942 148.755C479.942 148.85 480.037 148.945 480.037 149.04L486.79 155.318C486.98 155.508 487.266 155.603 487.646 155.603H495.16L486.6 148.279Z" fill="#0078D3"/>
<path d="M481.273 134.678C480.798 134.678 480.417 134.963 480.227 135.439L473.854 154.271L482.319 151.228L486.79 155.413C486.98 155.603 487.265 155.698 487.646 155.698H495.16L486.695 148.279H483.366L487.551 136.009L486.505 134.583H481.273V134.678Z" fill="url(#paint1_linear)"/>
<path d="M481.274 134.677C481.749 134.677 482.13 134.963 482.32 135.438L488.693 154.271C488.693 154.366 488.788 154.461 488.788 154.652C488.788 155.222 488.312 155.698 487.742 155.698H495.161C495.731 155.698 496.207 155.222 496.207 154.652C496.207 154.556 496.207 154.461 496.112 154.271L489.739 135.438C489.549 134.963 489.168 134.677 488.693 134.677H481.274Z" fill="url(#paint2_linear)"/>
<path d="M497.63 233.493H199.256V367.319H497.63V233.493Z" fill="#FFEEA9" stroke="#001E2B" stroke-miterlimit="10"/>
<path d="M383.207 290.372H355.339C353.722 290.372 352.485 289.135 352.485 287.518C352.485 285.902 353.722 284.665 355.339 284.665H383.207C384.824 284.665 386.061 285.902 386.061 287.518C386.061 289.04 384.729 290.372 383.207 290.372Z" fill="#001E2B" stroke="#001E2B" stroke-miterlimit="10"/>
<path d="M344.401 277.151H310.825V297.791H344.401V277.151Z" stroke="#001E2B" stroke-miterlimit="10"/>
<path d="M386.061 367.32H352.485C352.485 366.559 352.771 365.798 353.341 365.322C353.817 364.751 354.578 364.466 355.339 364.466H383.207C384.729 364.466 386.061 365.703 386.061 367.32Z" fill="#001E2B" stroke="#001E2B" stroke-miterlimit="10"/>
<path d="M383.207 330.225H355.339C353.722 330.225 352.485 328.988 352.485 327.372C352.485 325.755 353.722 324.518 355.339 324.518H383.207C384.824 324.518 386.061 325.755 386.061 327.372C386.061 328.988 384.729 330.225 383.207 330.225Z" fill="#001E2B" stroke="#001E2B" stroke-miterlimit="10"/>
<path d="M344.4 317.099H310.824V337.739H344.4V317.099Z" stroke="#001E2B" stroke-miterlimit="10"/>
<path d="M344.4 356.952H310.824V367.225H344.4V356.952Z" stroke="#001E2B" stroke-miterlimit="10"/>
<path d="M310.824 284.094H344.4" stroke="#001E2B" stroke-miterlimit="10"/>
<path d="M310.824 290.943H344.4" stroke="#001E2B" stroke-miterlimit="10"/>
<path d="M333.176 356.952V367.32" stroke="#001E2B" stroke-miterlimit="10"/>
<path d="M321.952 356.952V367.32" stroke="#001E2B" stroke-miterlimit="10"/>
<path d="M325.763 324L314.344 317.099H310.824V319.382L320.5 325.201L320.748 325.351M329.367 324L340.786 317.099H344.4V319.382L334.724 325.201C334.724 325.201 334.571 325.293 334.412 325.389M320.748 329.225L320.5 329.376L310.824 335.266V337.739H314.058L325.763 330.65M329.367 330.65L341.071 337.739H344.4V335.266L334.724 329.376L334.412 329.203" stroke="#001E2B" stroke-miterlimit="10"/>
<path d="M344.4 325.374H329.277V317.099H325.853V325.374H310.824V329.274H325.853V337.739H329.277V329.274H344.4V325.374Z" stroke="#001E2B" stroke-miterlimit="10"/>
<path d="M483.932 290.372H456.064C454.447 290.372 453.21 289.135 453.21 287.518C453.21 285.902 454.447 284.665 456.064 284.665H483.932C485.549 284.665 486.786 285.902 486.786 287.518C486.786 289.04 485.549 290.372 483.932 290.372Z" fill="#001E2B" stroke="#001E2B" stroke-miterlimit="10"/>
<path d="M445.221 277.151H411.646V297.791H445.221V277.151Z" stroke="#001E2B" stroke-miterlimit="10"/>
<path d="M428.387 292.464C431.118 292.464 433.333 290.25 433.333 287.518C433.333 284.787 431.118 282.573 428.387 282.573C425.655 282.573 423.441 284.787 423.441 287.518C423.441 290.25 425.655 292.464 428.387 292.464Z" stroke="#001E2B" stroke-miterlimit="10"/>
<path d="M483.933 330.225H456.064C454.447 330.225 453.211 328.988 453.211 327.372C453.211 325.755 454.447 324.518 456.064 324.518H483.933C485.55 324.518 486.786 325.755 486.786 327.372C486.786 328.988 485.55 330.225 483.933 330.225Z" fill="#001E2B" stroke="#001E2B" stroke-miterlimit="10"/>
<path d="M445.221 317.099H411.646V337.739H445.221V317.099Z" stroke="#001E2B" stroke-miterlimit="10"/>
<path d="M428.387 332.317C431.118 332.317 433.333 330.103 433.333 327.372C433.333 324.64 431.118 322.426 428.387 322.426C425.655 322.426 423.441 324.64 423.441 327.372C423.441 330.103 425.655 332.317 428.387 332.317Z" stroke="#001E2B" stroke-miterlimit="10"/>
<path d="M423.441 327.372C424.392 328.323 426.104 329.654 428.387 327.372C429.338 326.42 431.05 325.089 433.333 327.372" stroke="#001E2B" stroke-miterlimit="10"/>
<path d="M416.972 318.716L413.262 322.426" stroke="#001E2B" stroke-miterlimit="10"/>
<path d="M418.017 319.762L414.213 323.472" stroke="#001E2B" stroke-miterlimit="10"/>
<path d="M418.968 320.713L415.259 324.518" stroke="#001E2B" stroke-miterlimit="10"/>
<path d="M439.23 332.603L437.708 334.03" stroke="#001E2B" stroke-miterlimit="10"/>
<path d="M441.513 330.32L439.991 331.747" stroke="#001E2B" stroke-miterlimit="10"/>
<path d="M440.18 333.554L438.754 335.076" stroke="#001E2B" stroke-miterlimit="10"/>
<path d="M442.464 331.366L441.037 332.793" stroke="#001E2B" stroke-miterlimit="10"/>
<path d="M441.226 334.6L439.8 336.122" stroke="#001E2B" stroke-miterlimit="10"/>
<path d="M443.51 332.317L441.988 333.839" stroke="#001E2B" stroke-miterlimit="10"/>
<path d="M439.991 322.996L441.513 324.518" stroke="#001E2B" stroke-miterlimit="10"/>
<path d="M437.708 320.713L439.23 322.235" stroke="#001E2B" stroke-miterlimit="10"/>
<path d="M441.988 320.999L443.51 322.425" stroke="#001E2B" stroke-miterlimit="10"/>
<path d="M439.8 318.716L441.226 320.238" stroke="#001E2B" stroke-miterlimit="10"/>
<path d="M438.754 319.762L442.463 323.472" stroke="#001E2B" stroke-miterlimit="10"/>
<path d="M413.262 332.317L416.971 336.122" stroke="#001E2B" stroke-miterlimit="10"/>
<path d="M415.259 330.32L418.968 334.03" stroke="#001E2B" stroke-miterlimit="10"/>
<path d="M414.213 331.366L415.735 332.793" stroke="#001E2B" stroke-miterlimit="10"/>
<path d="M416.496 333.554L418.018 335.076" stroke="#001E2B" stroke-miterlimit="10"/>
<path d="M486.785 367.32H453.304C453.304 366.559 453.59 365.798 454.16 365.322C454.636 364.752 455.397 364.466 456.158 364.466H483.931C485.548 364.466 486.785 365.703 486.785 367.32Z" fill="#001E2B" stroke="#001E2B" stroke-miterlimit="10"/>
<path d="M445.031 356.952H411.36V367.225H445.031V356.952Z" stroke="#001E2B" stroke-miterlimit="10"/>
<path d="M421.061 367.32L411.359 360.567" stroke="#001E2B" stroke-miterlimit="10"/>
<path d="M445.03 364.847H428.765L417.542 357.047" stroke="#001E2B" stroke-miterlimit="10"/>
<path d="M285.239 367.32H251.759C251.759 366.559 252.044 365.798 252.615 365.322C253.09 364.751 253.851 364.466 254.612 364.466H282.385C284.002 364.466 285.239 365.703 285.239 367.32Z" fill="#001E2B" stroke="#001E2B" stroke-miterlimit="10"/>
<path d="M243.673 317.099H210.098V337.739H243.673V317.099Z" stroke="#001E2B" stroke-miterlimit="10"/>
<path d="M282.383 330.225H254.515C252.898 330.225 251.661 328.988 251.661 327.372C251.661 325.755 252.898 324.518 254.515 324.518H282.383C284 324.518 285.237 325.755 285.237 327.372C285.237 328.988 284 330.225 282.383 330.225Z" fill="#001E2B" stroke="#001E2B" stroke-miterlimit="10"/>
<path d="M243.673 356.952H210.098V367.225H243.673V356.952Z" stroke="#001E2B" stroke-miterlimit="10"/>
<path d="M232.449 317.099V337.739" stroke="#001E2B" stroke-miterlimit="10"/>
<path d="M221.225 317.099V337.739" stroke="#001E2B" stroke-miterlimit="10"/>
<path d="M243.674 277.151H210.099V297.791H243.674V277.151Z" stroke="#001E2B" stroke-miterlimit="10"/>
<path d="M282.384 290.372H254.516C252.899 290.372 251.662 289.135 251.662 287.518C251.662 285.902 252.899 284.665 254.516 284.665H282.384C284.001 284.665 285.238 285.902 285.238 287.518C285.238 289.04 284.001 290.372 282.384 290.372Z" fill="#001E2B" stroke="#001E2B" stroke-miterlimit="10"/>
<path d="M224.84 284.094H243.578" stroke="#001E2B" stroke-miterlimit="10"/>
<path d="M210.098 290.943H243.578" stroke="#001E2B" stroke-miterlimit="10"/>
<path d="M210.098 297.791H243.578" stroke="#001E2B" stroke-miterlimit="10"/>
<path d="M224.84 290.942V277.151" stroke="#001E2B" stroke-miterlimit="10"/>
<path d="M212.952 281.907C213.582 281.907 214.093 281.396 214.093 280.765C214.093 280.135 213.582 279.624 212.952 279.624C212.322 279.624 211.811 280.135 211.811 280.765C211.811 281.396 212.322 281.907 212.952 281.907Z" fill="#001E2B"/>
<path d="M216.852 281.907C217.482 281.907 217.993 281.396 217.993 280.765C217.993 280.135 217.482 279.624 216.852 279.624C216.222 279.624 215.711 280.135 215.711 280.765C215.711 281.396 216.222 281.907 216.852 281.907Z" fill="#001E2B"/>
<path d="M220.751 281.907C221.382 281.907 221.893 281.396 221.893 280.765C221.893 280.135 221.382 279.624 220.751 279.624C220.121 279.624 219.61 280.135 219.61 280.765C219.61 281.396 220.121 281.907 220.751 281.907Z" fill="#001E2B"/>
<path d="M212.952 289.04C213.582 289.04 214.093 288.529 214.093 287.899C214.093 287.269 213.582 286.758 212.952 286.758C212.322 286.758 211.811 287.269 211.811 287.899C211.811 288.529 212.322 289.04 212.952 289.04Z" fill="#001E2B"/>
<path d="M216.852 289.04C217.482 289.04 217.993 288.529 217.993 287.899C217.993 287.269 217.482 286.758 216.852 286.758C216.222 286.758 215.711 287.269 215.711 287.899C215.711 288.529 216.222 289.04 216.852 289.04Z" fill="#001E2B"/>
<path d="M220.751 289.04C221.382 289.04 221.893 288.529 221.893 287.899C221.893 287.269 221.382 286.758 220.751 286.758C220.121 286.758 219.61 287.269 219.61 287.899C219.61 288.529 220.121 289.04 220.751 289.04Z" fill="#001E2B"/>
<path d="M214.568 285.426C215.198 285.426 215.71 284.915 215.71 284.285C215.71 283.654 215.198 283.143 214.568 283.143C213.938 283.143 213.427 283.654 213.427 284.285C213.427 284.915 213.938 285.426 214.568 285.426Z" fill="#001E2B"/>
<path d="M218.467 285.426C219.098 285.426 219.609 284.915 219.609 284.285C219.609 283.654 219.098 283.143 218.467 283.143C217.837 283.143 217.326 283.654 217.326 284.285C217.326 284.915 217.837 285.426 218.467 285.426Z" fill="#001E2B"/>
<path d="M222.367 285.426C222.997 285.426 223.508 284.915 223.508 284.285C223.508 283.654 222.997 283.143 222.367 283.143C221.736 283.143 221.225 283.654 221.225 284.285C221.225 284.915 221.736 285.426 222.367 285.426Z" fill="#001E2B"/>
<path d="M226.838 356.952L235.208 362.183L243.578 367.32H226.838H210.098L218.468 362.183L226.838 356.952Z" stroke="#001E2B" stroke-miterlimit="10"/>
<path d="M555.936 227.12C555.936 233.398 553.368 239.105 549.183 243.195C545.093 247.285 539.386 249.853 533.108 249.948V255.655H169.771C167.773 255.655 165.776 255.37 163.874 254.894C158.642 253.467 154.077 250.233 151.033 245.858C148.465 242.149 146.943 237.678 146.943 232.827C146.943 226.55 149.511 220.843 153.696 216.753C156.455 213.995 159.974 211.902 163.969 210.856C165.871 210.38 167.868 210.095 169.866 210.095H538.91C543.761 210.095 548.232 211.617 551.941 214.185C554.414 217.894 555.936 222.365 555.936 227.12Z" fill="#001E2B"/>
<path d="M555.936 227.12C555.936 233.398 553.368 239.105 549.183 243.195C545.093 247.285 539.386 249.853 533.108 249.948V255.655H169.771C167.773 255.655 165.776 255.37 163.874 254.894C158.642 253.467 154.077 250.233 151.033 245.858C148.465 242.149 146.943 237.678 146.943 232.827C146.943 226.55 149.511 220.843 153.696 216.753C156.455 213.995 159.974 211.902 163.969 210.856C165.871 210.38 167.868 210.095 169.866 210.095H538.91C543.761 210.095 548.232 211.617 551.941 214.185C554.414 217.894 555.936 222.365 555.936 227.12Z" stroke="#001E2B" stroke-width="0.9151" stroke-miterlimit="10"/>
<path d="M555.701 226.827C555.701 233.105 553.132 238.812 548.947 242.902C544.857 246.992 539.151 249.56 532.873 249.655H163.638C158.883 249.655 154.412 248.133 150.798 245.565C144.901 241.475 141.001 234.532 141.001 226.827C141.001 220.55 143.569 214.843 147.754 210.753C151.844 206.663 157.456 204.095 163.733 204H533.063C540.768 204 547.616 207.899 551.706 213.797C554.179 217.601 555.701 222.072 555.701 226.827Z" fill="white"/>
<path d="M555.935 227.12C555.935 233.398 553.367 239.105 549.182 243.195C545.092 247.285 539.385 249.853 533.107 249.948H163.873C159.117 249.948 154.647 248.426 151.032 245.858C145.135 241.768 141.235 234.825 141.235 227.12C141.235 220.843 143.803 215.136 147.988 211.046C152.078 206.956 157.69 204.388 163.968 204.293H533.298C541.002 204.293 547.85 208.193 551.94 214.09C554.413 217.894 555.935 222.365 555.935 227.12Z" stroke="#001E2B" stroke-width="0.9151" stroke-miterlimit="10"/>
<path d="M522.644 240.817H494.871C488.973 240.817 484.218 236.061 484.218 230.164C484.218 224.267 488.973 219.511 494.871 219.511H522.644C528.541 219.511 533.297 224.267 533.297 230.164C533.297 235.966 528.446 240.817 522.644 240.817Z" fill="white" stroke="#001E2B" stroke-miterlimit="10"/>
<path d="M529.874 228.262C529.874 233.303 525.784 237.393 520.743 237.393C515.702 237.393 511.612 233.303 511.612 228.262V222.65H529.874V228.262Z" fill="#001E2B" stroke="#001E2B" stroke-miterlimit="10"/>
<path d="M520.743 231.876C525.785 231.876 529.874 227.788 529.874 222.745C529.874 217.702 525.785 213.614 520.743 213.614C515.7 213.614 511.612 217.702 511.612 222.745C511.612 227.788 515.7 231.876 520.743 231.876Z" fill="#00ED64" stroke="#001E2B" stroke-width="0.9525" stroke-miterlimit="10"/>
<path d="M243.223 221.22L247.957 227.592L252.727 221.22H254.239V234H252.583V224.064L247.975 230.256L243.367 224.064V234H241.693V221.22H243.223ZM260.536 234.18C260.044 234.18 259.594 234.096 259.186 233.928C258.778 233.748 258.43 233.502 258.142 233.19C257.854 232.878 257.626 232.5 257.458 232.056C257.302 231.6 257.224 231.09 257.224 230.526V225H258.772V230.292C258.772 231.048 258.952 231.648 259.312 232.092C259.684 232.536 260.182 232.758 260.806 232.758C261.154 232.758 261.478 232.686 261.778 232.542C262.09 232.386 262.354 232.17 262.57 231.894C262.798 231.606 262.978 231.258 263.11 230.85C263.242 230.442 263.308 229.98 263.308 229.464V225H264.856V234H263.308V232.614C263.008 233.142 262.612 233.538 262.12 233.802C261.64 234.054 261.112 234.18 260.536 234.18ZM267.773 220.5H269.321V234H267.773V220.5ZM275.748 234.09C275.352 234.09 274.986 234.036 274.65 233.928C274.314 233.808 274.02 233.64 273.768 233.424C273.528 233.196 273.336 232.908 273.192 232.56C273.06 232.212 272.994 231.804 272.994 231.336V226.422H271.086V225H272.994V222.498H274.542V225H277.134V226.422H274.542V231.138C274.542 231.714 274.668 232.116 274.92 232.344C275.172 232.56 275.544 232.668 276.036 232.668C276.228 232.668 276.42 232.656 276.612 232.632C276.816 232.596 276.99 232.548 277.134 232.488V233.874C276.942 233.934 276.732 233.982 276.504 234.018C276.276 234.066 276.024 234.09 275.748 234.09ZM279.903 222.588C279.591 222.588 279.327 222.486 279.111 222.282C278.895 222.066 278.787 221.802 278.787 221.49C278.787 221.19 278.895 220.932 279.111 220.716C279.327 220.5 279.591 220.392 279.903 220.392C280.215 220.392 280.473 220.5 280.677 220.716C280.881 220.932 280.983 221.19 280.983 221.49C280.983 221.802 280.881 222.066 280.677 222.282C280.473 222.486 280.215 222.588 279.903 222.588ZM279.111 225H280.659V234H279.111V225ZM283.306 228.186H287.896V229.734H283.306V228.186ZM296.531 234.216C295.595 234.216 294.719 234.048 293.903 233.712C293.099 233.376 292.397 232.914 291.797 232.326C291.209 231.726 290.747 231.024 290.411 230.22C290.075 229.416 289.907 228.546 289.907 227.61C289.907 226.674 290.075 225.804 290.411 225C290.747 224.196 291.209 223.5 291.797 222.912C292.397 222.312 293.099 221.844 293.903 221.508C294.719 221.172 295.595 221.004 296.531 221.004C297.335 221.004 298.079 221.13 298.763 221.382C299.447 221.622 300.053 221.946 300.581 222.354C301.121 222.762 301.565 223.236 301.913 223.776C302.261 224.304 302.507 224.856 302.651 225.432H300.887C300.743 225.036 300.533 224.664 300.257 224.316C299.993 223.968 299.669 223.668 299.285 223.416C298.913 223.152 298.493 222.948 298.025 222.804C297.557 222.66 297.059 222.588 296.531 222.588C295.823 222.588 295.163 222.72 294.551 222.984C293.951 223.236 293.429 223.59 292.985 224.046C292.541 224.49 292.193 225.018 291.941 225.63C291.701 226.242 291.581 226.902 291.581 227.61C291.581 228.318 291.701 228.978 291.941 229.59C292.193 230.202 292.541 230.736 292.985 231.192C293.429 231.636 293.951 231.99 294.551 232.254C295.163 232.506 295.823 232.632 296.531 232.632C297.059 232.632 297.557 232.56 298.025 232.416C298.493 232.272 298.913 232.074 299.285 231.822C299.669 231.558 299.993 231.252 300.257 230.904C300.533 230.556 300.743 230.184 300.887 229.788H302.651C302.507 230.364 302.261 230.922 301.913 231.462C301.565 231.99 301.121 232.458 300.581 232.866C300.053 233.274 299.447 233.604 298.763 233.856C298.079 234.096 297.335 234.216 296.531 234.216ZM304.723 220.5H306.271V234H304.723V220.5ZM313.201 234.18C312.517 234.18 311.887 234.06 311.311 233.82C310.735 233.568 310.237 233.232 309.817 232.812C309.397 232.392 309.067 231.9 308.827 231.336C308.599 230.76 308.485 230.148 308.485 229.5C308.485 228.852 308.599 228.246 308.827 227.682C309.067 227.106 309.397 226.608 309.817 226.188C310.237 225.768 310.735 225.438 311.311 225.198C311.887 224.946 312.517 224.82 313.201 224.82C313.873 224.82 314.497 224.946 315.073 225.198C315.649 225.438 316.147 225.768 316.567 226.188C316.987 226.608 317.311 227.106 317.539 227.682C317.779 228.246 317.899 228.852 317.899 229.5C317.899 230.148 317.779 230.76 317.539 231.336C317.311 231.9 316.987 232.392 316.567 232.812C316.147 233.232 315.649 233.568 315.073 233.82C314.497 234.06 313.873 234.18 313.201 234.18ZM313.201 232.74C313.669 232.74 314.095 232.656 314.479 232.488C314.863 232.32 315.187 232.092 315.451 231.804C315.727 231.504 315.937 231.162 316.081 230.778C316.237 230.382 316.315 229.956 316.315 229.5C316.315 229.056 316.237 228.636 316.081 228.24C315.937 227.844 315.727 227.502 315.451 227.214C315.187 226.914 314.863 226.68 314.479 226.512C314.095 226.344 313.669 226.26 313.201 226.26C312.733 226.26 312.307 226.344 311.923 226.512C311.539 226.68 311.209 226.914 310.933 227.214C310.657 227.502 310.441 227.844 310.285 228.24C310.141 228.636 310.069 229.056 310.069 229.5C310.069 229.956 310.141 230.382 310.285 230.778C310.441 231.162 310.657 231.504 310.933 231.804C311.209 232.092 311.539 232.32 311.923 232.488C312.307 232.656 312.733 232.74 313.201 232.74ZM323.307 234.18C322.815 234.18 322.365 234.096 321.957 233.928C321.549 233.748 321.201 233.502 320.913 233.19C320.625 232.878 320.397 232.5 320.229 232.056C320.073 231.6 319.995 231.09 319.995 230.526V225H321.543V230.292C321.543 231.048 321.723 231.648 322.083 232.092C322.455 232.536 322.953 232.758 323.577 232.758C323.925 232.758 324.249 232.686 324.549 232.542C324.861 232.386 325.125 232.17 325.341 231.894C325.569 231.606 325.749 231.258 325.881 230.85C326.013 230.442 326.079 229.98 326.079 229.464V225H327.627V234H326.079V232.614C325.779 233.142 325.383 233.538 324.891 233.802C324.411 234.054 323.883 234.18 323.307 234.18ZM334.253 234.18C333.617 234.18 333.029 234.06 332.489 233.82C331.961 233.568 331.499 233.232 331.103 232.812C330.707 232.38 330.395 231.882 330.167 231.318C329.951 230.754 329.843 230.148 329.843 229.5C329.843 228.852 329.951 228.246 330.167 227.682C330.395 227.118 330.707 226.626 331.103 226.206C331.499 225.774 331.961 225.438 332.489 225.198C333.029 224.946 333.617 224.82 334.253 224.82C334.937 224.82 335.561 224.976 336.125 225.288C336.689 225.588 337.121 225.954 337.421 226.386V220.5H338.969V234H337.421V232.614C337.121 233.046 336.689 233.418 336.125 233.73C335.561 234.03 334.937 234.18 334.253 234.18ZM334.487 232.758C334.943 232.758 335.357 232.674 335.729 232.506C336.101 232.338 336.419 232.11 336.683 231.822C336.959 231.522 337.169 231.174 337.313 230.778C337.469 230.382 337.547 229.956 337.547 229.5C337.547 229.044 337.469 228.618 337.313 228.222C337.169 227.826 336.959 227.484 336.683 227.196C336.419 226.896 336.101 226.662 335.729 226.494C335.357 226.326 334.943 226.242 334.487 226.242C334.031 226.242 333.611 226.326 333.227 226.494C332.855 226.662 332.531 226.896 332.255 227.196C331.991 227.484 331.781 227.826 331.625 228.222C331.481 228.618 331.409 229.044 331.409 229.5C331.409 229.956 331.481 230.382 331.625 230.778C331.781 231.174 331.991 231.522 332.255 231.822C332.531 232.11 332.855 232.338 333.227 232.506C333.611 232.674 334.031 232.758 334.487 232.758ZM341.955 236.574H340.929L342.135 234C341.919 233.892 341.739 233.736 341.595 233.532C341.463 233.316 341.397 233.07 341.397 232.794C341.397 232.434 341.523 232.122 341.775 231.858C342.039 231.582 342.357 231.444 342.729 231.444C343.101 231.444 343.413 231.582 343.665 231.858C343.929 232.122 344.061 232.434 344.061 232.794C344.061 232.95 344.037 233.094 343.989 233.226C343.941 233.358 343.881 233.484 343.809 233.604L341.955 236.574ZM352.594 221.22L357.328 227.592L362.098 221.22H363.61V234H361.954V224.064L357.346 230.256L352.738 224.064V234H351.064V221.22H352.594ZM369.907 234.18C369.415 234.18 368.965 234.096 368.557 233.928C368.149 233.748 367.801 233.502 367.513 233.19C367.225 232.878 366.997 232.5 366.829 232.056C366.673 231.6 366.595 231.09 366.595 230.526V225H368.143V230.292C368.143 231.048 368.323 231.648 368.683 232.092C369.055 232.536 369.553 232.758 370.177 232.758C370.525 232.758 370.849 232.686 371.149 232.542C371.461 232.386 371.725 232.17 371.941 231.894C372.169 231.606 372.349 231.258 372.481 230.85C372.613 230.442 372.679 229.98 372.679 229.464V225H374.227V234H372.679V232.614C372.379 233.142 371.983 233.538 371.491 233.802C371.011 234.054 370.483 234.18 369.907 234.18ZM377.145 220.5H378.693V234H377.145V220.5ZM385.119 234.09C384.723 234.09 384.357 234.036 384.021 233.928C383.685 233.808 383.391 233.64 383.139 233.424C382.899 233.196 382.707 232.908 382.563 232.56C382.431 232.212 382.365 231.804 382.365 231.336V226.422H380.457V225H382.365V222.498H383.913V225H386.505V226.422H383.913V231.138C383.913 231.714 384.039 232.116 384.291 232.344C384.543 232.56 384.915 232.668 385.407 232.668C385.599 232.668 385.791 232.656 385.983 232.632C386.187 232.596 386.361 232.548 386.505 232.488V233.874C386.313 233.934 386.103 233.982 385.875 234.018C385.647 234.066 385.395 234.09 385.119 234.09ZM389.274 222.588C388.962 222.588 388.698 222.486 388.482 222.282C388.266 222.066 388.158 221.802 388.158 221.49C388.158 221.19 388.266 220.932 388.482 220.716C388.698 220.5 388.962 220.392 389.274 220.392C389.586 220.392 389.844 220.5 390.048 220.716C390.252 220.932 390.354 221.19 390.354 221.49C390.354 221.802 390.252 222.066 390.048 222.282C389.844 222.486 389.586 222.588 389.274 222.588ZM388.482 225H390.03V234H388.482V225ZM392.677 228.186H397.267V229.734H392.677V228.186ZM400.142 221.22H404.498C405.086 221.22 405.614 221.304 406.082 221.472C406.562 221.64 406.964 221.88 407.288 222.192C407.624 222.504 407.876 222.876 408.044 223.308C408.224 223.74 408.314 224.22 408.314 224.748C408.314 225.684 408.032 226.452 407.468 227.052C406.916 227.652 406.142 228.024 405.146 228.168L410.078 234H407.972L403.058 228.186H401.816V234H400.142V221.22ZM404.3 226.692C405.032 226.692 405.602 226.53 406.01 226.206C406.43 225.882 406.64 225.396 406.64 224.748C406.64 224.1 406.43 223.608 406.01 223.272C405.602 222.936 405.032 222.768 404.3 222.768H401.816V226.692H404.3ZM414.904 234.18C414.244 234.18 413.638 234.066 413.086 233.838C412.534 233.598 412.054 233.268 411.646 232.848C411.25 232.428 410.938 231.936 410.71 231.372C410.482 230.796 410.368 230.172 410.368 229.5C410.368 228.84 410.47 228.228 410.674 227.664C410.89 227.088 411.196 226.59 411.592 226.17C411.988 225.75 412.468 225.42 413.032 225.18C413.596 224.94 414.232 224.82 414.94 224.82C415.648 224.82 416.278 224.958 416.83 225.234C417.394 225.498 417.862 225.864 418.234 226.332C418.618 226.788 418.894 227.328 419.062 227.952C419.242 228.564 419.308 229.218 419.26 229.914H411.934C411.946 230.322 412.03 230.7 412.186 231.048C412.354 231.396 412.57 231.702 412.834 231.966C413.098 232.218 413.41 232.416 413.77 232.56C414.13 232.704 414.514 232.776 414.922 232.776C415.486 232.776 415.99 232.662 416.434 232.434C416.89 232.194 417.256 231.804 417.532 231.264H419.116C419.008 231.66 418.834 232.038 418.594 232.398C418.354 232.746 418.054 233.052 417.694 233.316C417.346 233.58 416.938 233.79 416.47 233.946C416.002 234.102 415.48 234.18 414.904 234.18ZM414.886 226.188C414.562 226.188 414.244 226.236 413.932 226.332C413.62 226.428 413.332 226.578 413.068 226.782C412.816 226.986 412.594 227.244 412.402 227.556C412.21 227.868 412.078 228.246 412.006 228.69H417.622C417.478 227.85 417.154 227.226 416.65 226.818C416.146 226.398 415.558 226.188 414.886 226.188ZM425.454 237.942C424.854 237.942 424.302 237.864 423.798 237.708C423.294 237.552 422.85 237.336 422.466 237.06C422.094 236.784 421.788 236.454 421.548 236.07C421.32 235.698 421.17 235.284 421.098 234.828H422.61C422.814 235.428 423.162 235.866 423.654 236.142C424.146 236.43 424.758 236.574 425.49 236.574C425.898 236.574 426.276 236.508 426.624 236.376C426.972 236.244 427.272 236.046 427.524 235.782C427.776 235.518 427.974 235.188 428.118 234.792C428.262 234.408 428.334 233.964 428.334 233.46V232.398C428.022 232.854 427.59 233.232 427.038 233.532C426.486 233.832 425.874 233.982 425.202 233.982C424.578 233.982 423.996 233.868 423.456 233.64C422.916 233.4 422.448 233.076 422.052 232.668C421.656 232.248 421.344 231.762 421.116 231.21C420.9 230.646 420.792 230.04 420.792 229.392C420.792 228.756 420.9 228.162 421.116 227.61C421.344 227.046 421.656 226.56 422.052 226.152C422.448 225.732 422.916 225.408 423.456 225.18C423.996 224.94 424.578 224.82 425.202 224.82C425.874 224.82 426.486 224.97 427.038 225.27C427.59 225.558 428.022 225.93 428.334 226.386V225H429.882V233.442C429.882 234.198 429.762 234.852 429.522 235.404C429.294 235.968 428.982 236.436 428.586 236.808C428.19 237.192 427.722 237.474 427.182 237.654C426.642 237.846 426.066 237.942 425.454 237.942ZM425.418 232.542C425.862 232.542 426.27 232.464 426.642 232.308C427.026 232.152 427.35 231.936 427.614 231.66C427.878 231.372 428.082 231.036 428.226 230.652C428.382 230.268 428.46 229.848 428.46 229.392C428.46 228.948 428.382 228.534 428.226 228.15C428.082 227.754 427.878 227.418 427.614 227.142C427.35 226.866 427.026 226.65 426.642 226.494C426.27 226.326 425.862 226.242 425.418 226.242C424.962 226.242 424.548 226.326 424.176 226.494C423.804 226.65 423.486 226.866 423.222 227.142C422.958 227.418 422.748 227.754 422.592 228.15C422.448 228.534 422.376 228.948 422.376 229.392C422.376 229.848 422.448 230.268 422.592 230.652C422.748 231.036 422.958 231.372 423.222 231.66C423.486 231.936 423.804 232.152 424.176 232.308C424.548 232.464 424.962 232.542 425.418 232.542ZM433.589 222.588C433.277 222.588 433.013 222.486 432.797 222.282C432.581 222.066 432.473 221.802 432.473 221.49C432.473 221.19 432.581 220.932 432.797 220.716C433.013 220.5 433.277 220.392 433.589 220.392C433.901 220.392 434.159 220.5 434.363 220.716C434.567 220.932 434.669 221.19 434.669 221.49C434.669 221.802 434.567 222.066 434.363 222.282C434.159 222.486 433.901 222.588 433.589 222.588ZM432.797 225H434.345V234H432.797V225ZM441.275 234.18C440.591 234.18 439.961 234.06 439.385 233.82C438.809 233.568 438.311 233.232 437.891 232.812C437.471 232.392 437.141 231.9 436.901 231.336C436.673 230.76 436.559 230.148 436.559 229.5C436.559 228.852 436.673 228.246 436.901 227.682C437.141 227.106 437.471 226.608 437.891 226.188C438.311 225.768 438.809 225.438 439.385 225.198C439.961 224.946 440.591 224.82 441.275 224.82C441.947 224.82 442.571 224.946 443.147 225.198C443.723 225.438 444.221 225.768 444.641 226.188C445.061 226.608 445.385 227.106 445.613 227.682C445.853 228.246 445.973 228.852 445.973 229.5C445.973 230.148 445.853 230.76 445.613 231.336C445.385 231.9 445.061 232.392 444.641 232.812C444.221 233.232 443.723 233.568 443.147 233.82C442.571 234.06 441.947 234.18 441.275 234.18ZM441.275 232.74C441.743 232.74 442.169 232.656 442.553 232.488C442.937 232.32 443.261 232.092 443.525 231.804C443.801 231.504 444.011 231.162 444.155 230.778C444.311 230.382 444.389 229.956 444.389 229.5C444.389 229.056 444.311 228.636 444.155 228.24C444.011 227.844 443.801 227.502 443.525 227.214C443.261 226.914 442.937 226.68 442.553 226.512C442.169 226.344 441.743 226.26 441.275 226.26C440.807 226.26 440.381 226.344 439.997 226.512C439.613 226.68 439.283 226.914 439.007 227.214C438.731 227.502 438.515 227.844 438.359 228.24C438.215 228.636 438.143 229.056 438.143 229.5C438.143 229.956 438.215 230.382 438.359 230.778C438.515 231.162 438.731 231.504 439.007 231.804C439.283 232.092 439.613 232.32 439.997 232.488C440.381 232.656 440.807 232.74 441.275 232.74ZM448.195 225H449.743V226.386C450.055 225.846 450.463 225.45 450.967 225.198C451.471 224.946 452.017 224.82 452.605 224.82C453.109 224.82 453.571 224.904 453.991 225.072C454.411 225.24 454.765 225.486 455.053 225.81C455.353 226.122 455.587 226.506 455.755 226.962C455.923 227.406 456.007 227.904 456.007 228.456V234H454.477V228.69C454.477 227.934 454.279 227.34 453.883 226.908C453.499 226.464 452.989 226.242 452.353 226.242C451.993 226.242 451.651 226.314 451.327 226.458C451.015 226.602 450.739 226.818 450.499 227.106C450.271 227.382 450.085 227.724 449.941 228.132C449.809 228.54 449.743 229.008 449.743 229.536V234H448.195V225Z" fill="black"/>
<path d="M125.541 418.788L131.723 429.536L137.906 440.284H125.541H113.176L119.358 429.536L125.541 418.788Z" fill="white" stroke="#001E2B" stroke-miterlimit="10"/>
<path d="M125.541 432.675L113.177 440.284H137.906L125.541 432.675Z" fill="#001E2B"/>
<path d="M125.542 432.675V418.788" stroke="#001E2B" stroke-miterlimit="10"/>
<path d="M125.541 329V369.233" stroke="#001E2B" stroke-miterlimit="10"/>
<path d="M125.542 383.12V399.004" stroke="#001E2B" stroke-miterlimit="10"/>
</g>
<defs>
<linearGradient id="paint0_linear" x1="480.659" y1="134.691" x2="480.659" y2="155.679" gradientUnits="userSpaceOnUse">
<stop stop-color="#104887"/>
<stop offset="1" stop-color="#0767B9"/>
</linearGradient>
<linearGradient id="paint1_linear" x1="483.803" y1="146.647" x2="485.822" y2="145.962" gradientUnits="userSpaceOnUse">
<stop stop-opacity="0"/>
<stop offset="0.5" stop-opacity="0.05"/>
<stop offset="1" stop-opacity="0.25"/>
</linearGradient>
<linearGradient id="paint2_linear" x1="488.675" y1="134.691" x2="488.675" y2="155.679" gradientUnits="userSpaceOnUse">
<stop stop-color="#3CCCF4"/>
<stop offset="1" stop-color="#2894E1"/>
</linearGradient>
<clipPath id="clip0">
<rect width="668" height="440" fill="white"/>
</clipPath>
</defs>
</svg>
