<svg width="688" height="440" viewBox="0 0 688 440" fill="none" xmlns="http://www.w3.org/2000/svg">
<path d="M477.3 48.7001C482.933 48.7001 487.5 44.1334 487.5 38.5C487.5 32.8667 482.933 28.3 477.3 28.3C471.667 28.3 467.1 32.8667 467.1 38.5C467.1 44.1334 471.667 48.7001 477.3 48.7001Z" fill="white" stroke="#001E2B" stroke-width="0.5" stroke-miterlimit="10"/>
<path d="M471.1 46.6C471.1 46.6 484 42.3 485.8 32.8C488 35.8 488.8 42.5 484 46.1C479.2 49.7 474.6 48.5 471.1 46.6Z" fill="#023430" stroke="#001E2B" stroke-width="0.5" stroke-miterlimit="10"/>
<path d="M477.3 64.4V54.9" stroke="#001E2B" stroke-width="0.5" stroke-miterlimit="10"/>
<path d="M477.3 116.4V69.5" stroke="#001E2B" stroke-width="0.5" stroke-miterlimit="10"/>
<path d="M143.1 238.2L153 246.8L162.8 255.4L150.4 259.7L138 263.9L140.6 251L143.1 238.2Z" fill="white" stroke="#001E2B" stroke-width="0.5" stroke-miterlimit="10"/>
<path d="M147.9 252.1L138 263.9L162.8 255.4L147.9 252.1Z" fill="#001E2B"/>
<path d="M147.9 252.1L143.1 238.2" stroke="#001E2B" stroke-width="0.5" stroke-miterlimit="10"/>
<path d="M344 216.6L263.9 255.2V285.1L344 323.8L424.2 285.1V255.2L344 216.6Z" fill="#FFEEA9"/>
<path d="M424.2 255.2L344 293.9L263.9 255.2L344 216.6L424.2 255.2Z" fill="white"/>
<path d="M344 216.6L263.9 255.2V285.1L344 323.8L424.2 285.1V255.2L344 216.6Z" stroke="#231F20" stroke-width="0.5" stroke-miterlimit="10"/>
<path d="M263.9 255.2L344 293.9V323.8" stroke="#231F20" stroke-width="0.5" stroke-miterlimit="10"/>
<path d="M344 293.9C344 293.9 421.2 256.7 424.2 255.2V285.1L406.5 293.7L418.7 257.9" fill="#001E2B"/>
<path d="M344 293.9C344 293.9 421.2 256.7 424.2 255.2V285.1L406.5 293.7L418.7 257.9" stroke="#001E2B" stroke-width="0.5" stroke-miterlimit="10"/>
<path d="M243 267.9L162.8 306.6V336.5L243 375.1L323.1 336.5V306.6L243 267.9Z" fill="#00ED64"/>
<path d="M323.1 306.6L243 345.2L162.8 306.6L243 267.9L323.1 306.6Z" fill="white"/>
<path d="M243 267.9L162.8 306.6V336.5L243 375.1L323.1 336.5V306.6L243 267.9Z" stroke="#231F20" stroke-width="0.5" stroke-miterlimit="10"/>
<path d="M162.8 306.6L243 345.2V375.1" stroke="#231F20" stroke-width="0.5" stroke-miterlimit="10"/>
<path d="M243 345.2C243 345.2 320.2 308 323.2 306.5V336.4L305.5 345L317.7 309.2" fill="#001E2B"/>
<path d="M243 345.2C243 345.2 320.2 308 323.2 306.5V336.4L305.5 345L317.7 309.2" stroke="#001E2B" stroke-width="0.5" stroke-miterlimit="10"/>
<path d="M445.5 267.9L365.4 306.6V336.5L445.5 375.1L525.7 336.5V306.6L445.5 267.9Z" fill="#00ED64"/>
<path d="M525.7 306.6L445.5 345.2L365.4 306.6L445.5 267.9L525.7 306.6Z" fill="white"/>
<path d="M445.5 267.9L365.4 306.6V336.5L445.5 375.1L525.7 336.5V306.6L445.5 267.9Z" stroke="#231F20" stroke-width="0.5" stroke-miterlimit="10"/>
<path d="M365.4 306.6L445.5 345.2V375.1" stroke="#231F20" stroke-width="0.5" stroke-miterlimit="10"/>
<path d="M445.5 345.2C445.5 345.2 522.7 308 525.7 306.5V336.4L508 345L520.2 309.2" fill="#001E2B"/>
<path d="M445.5 345.2C445.5 345.2 522.7 308 525.7 306.5V336.4L508 345L520.2 309.2" stroke="#001E2B" stroke-width="0.5" stroke-miterlimit="10"/>
<path d="M344 316.5L263.9 355.2V385.1L344 423.7L424.2 385.1V355.2L344 316.5Z" fill="#FFE212"/>
<path d="M424.2 355.2L344 393.8L263.9 355.2L344 316.5L424.2 355.2Z" fill="white"/>
<path d="M344 316.5L263.9 355.2V385.1L344 423.7L424.2 385.1V355.2L344 316.5Z" stroke="#231F20" stroke-width="0.5" stroke-miterlimit="10"/>
<path d="M263.9 355.2L344 393.8V423.7" stroke="#231F20" stroke-width="0.5" stroke-miterlimit="10"/>
<path d="M344 393.8C344 393.8 421.2 356.6 424.2 355.1V385L406.5 393.6L418.7 357.8" fill="#001E2B"/>
<path d="M344 393.8C344 393.8 421.2 356.6 424.2 355.1V385L406.5 393.6L418.7 357.8" stroke="#001E2B" stroke-width="0.5" stroke-miterlimit="10"/>
<path d="M344 373.9C367.527 373.9 386.6 365.528 386.6 355.2C386.6 344.872 367.527 336.5 344 336.5C320.473 336.5 301.4 344.872 301.4 355.2C301.4 365.528 320.473 373.9 344 373.9Z" fill="#FFC010"/>
<path d="M243 325.3C266.527 325.3 285.6 316.928 285.6 306.6C285.6 296.272 266.527 287.9 243 287.9C219.473 287.9 200.4 296.272 200.4 306.6C200.4 316.928 219.473 325.3 243 325.3Z" fill="#00C954"/>
<path d="M445.5 325.3C469.027 325.3 488.1 316.928 488.1 306.6C488.1 296.272 469.027 287.9 445.5 287.9C421.973 287.9 402.9 296.272 402.9 306.6C402.9 316.928 421.973 325.3 445.5 325.3Z" fill="#00C954"/>
<path d="M222.2 16.3V199.9H394.7V76.2L334.7 16.3H222.2Z" fill="white" stroke="#231F20" stroke-width="0.5" stroke-miterlimit="10"/>
<path d="M394.7 76.2L334.7 16.3V76.2H394.7Z" fill="white" stroke="#231F20" stroke-width="0.5" stroke-miterlimit="10" stroke-linejoin="round"/>
<path d="M341.4 76.2001L337.2 89.4001L394.7 76.2001H341.4Z" fill="#001E2B"/>
<path d="M244.6 33.1001V216.7H417V93.0001L357.1 33.1001H244.6Z" fill="white" stroke="#231F20" stroke-width="0.5" stroke-miterlimit="10"/>
<path d="M417 93.0001L357.1 33.1001V93.0001H417Z" fill="white" stroke="#231F20" stroke-width="0.5" stroke-miterlimit="10" stroke-linejoin="round"/>
<path d="M363.7 93L359.6 106.2L417 93H363.7Z" fill="#001E2B"/>
<path d="M267 49.9V233.5H439.4V109.8L379.5 49.9H267Z" fill="white" stroke="#231F20" stroke-width="0.5" stroke-miterlimit="10"/>
<path d="M439.4 109.8L379.5 49.9V109.8H439.4Z" fill="white" stroke="#231F20" stroke-width="0.5" stroke-miterlimit="10" stroke-linejoin="round"/>
<path d="M386.1 109.8L382 123L439.4 109.8H386.1Z" fill="#001E2B"/>
<path d="M344 208.3V353.5" stroke="#001E2B" stroke-width="0.5" stroke-miterlimit="10" stroke-dasharray="2 2"/>
<path d="M445.5 153.1C487.9 195.5 487.9 264.2 445.5 306.6" stroke="#001E2B" stroke-width="0.5" stroke-miterlimit="10" stroke-dasharray="2 2"/>
<path d="M243 106.2C187.6 161.6 187.6 251.2 243 306.6" stroke="#001E2B" stroke-width="0.5" stroke-miterlimit="10" stroke-dasharray="2 2"/>
<path d="M398.2 208.3H297.1C290.8 208.3 285.6 203.1 285.6 196.8V193.5H409.6V196.8C409.6 203.1 404.5 208.3 398.2 208.3Z" fill="#001E2B" stroke="#001E2B" stroke-width="0.5" stroke-miterlimit="10"/>
<path d="M399.7 203.4H295.5C290 203.4 285.6 198.9 285.6 193.5C285.6 188 290.1 183.6 295.5 183.6H399.6C405.1 183.6 409.5 188.1 409.5 193.5C409.6 199 405.2 203.4 399.7 203.4Z" fill="#FFE212" stroke="#231F20" stroke-width="0.5" stroke-miterlimit="10"/>
<path d="M491.5 152.4H334.7C328.4 152.4 323.2 147.2 323.2 140.9V137.6H502.9V140.9C502.9 147.3 497.8 152.4 491.5 152.4Z" fill="#001E2B" stroke="#001E2B" stroke-width="0.5" stroke-miterlimit="10"/>
<path d="M493 147.6H333.2C327.7 147.6 323.3 143.1 323.3 137.7C323.3 132.2 327.8 127.8 333.2 127.8H493C498.5 127.8 502.9 132.3 502.9 137.7C502.9 143.1 498.5 147.6 493 147.6Z" fill="#B1FF05" stroke="#231F20" stroke-width="0.5" stroke-miterlimit="10"/>
<path d="M343.2 106.2H198C191.7 106.2 186.5 101 186.5 94.7001V91.4001H354.7V94.7001C354.7 101.1 349.5 106.2 343.2 106.2Z" fill="#001E2B" stroke="#001E2B" stroke-width="0.5" stroke-miterlimit="10"/>
<path d="M344.8 101.4H196.4C190.9 101.4 186.5 96.9001 186.5 91.5001C186.5 86.0001 191 81.6001 196.4 81.6001H344.7C350.2 81.6001 354.6 86.1001 354.6 91.5001C354.7 96.9001 350.2 101.4 344.8 101.4Z" fill="#00ED64" stroke="#231F20" stroke-width="0.5" stroke-miterlimit="10"/>
<path d="M439.4 233.4H267V242.8H439.4V233.4Z" fill="#001E2B" stroke="#001E2B" stroke-width="0.5" stroke-miterlimit="10"/>
<path d="M267 216.7H244.6V226.1H267V216.7Z" fill="#001E2B" stroke="#001E2B" stroke-width="0.5" stroke-miterlimit="10"/>
<path d="M244.6 199.9H222.2V209.3H244.6V199.9Z" fill="#001E2B" stroke="#001E2B" stroke-width="0.5" stroke-miterlimit="10"/>
<path d="M199 91.5H342.2" stroke="#001E2B" stroke-width="0.5" stroke-miterlimit="10" stroke-dasharray="2 2"/>
<path d="M335.7 137.7H490.4" stroke="#001E2B" stroke-width="0.5" stroke-miterlimit="10" stroke-dasharray="2 2"/>
<path d="M298.5 194.3H396.7" stroke="#001E2B" stroke-width="0.5" stroke-miterlimit="10" stroke-dasharray="2 2"/>
</svg>
